<svg version="1.1" id="Layer_1" xmlns="http://www.w3.org/2000/svg" xmlns:xlink="http://www.w3.org/1999/xlink" x="0px" y="0px"
	 width="100%" viewBox="0 0 356 353" enable-background="new 0 0 356 353" xml:space="preserve">
<path fill="#77A2E3" opacity="1.000000" stroke="none" 
	d="
M1.000000,131.000000 
	C1.000000,88.514809 1.032935,46.529530 0.927241,4.544606 
	C0.920056,1.690483 1.343215,0.905830 4.453194,0.908723 
	C120.745415,1.016906 237.037766,1.018164 353.329987,0.907916 
	C356.647858,0.904771 357.065125,1.895672 357.063232,4.827462 
	C356.988861,119.953468 356.987396,235.079559 357.069672,350.205536 
	C357.071838,353.216614 356.532867,354.089386 353.296936,354.086517 
	C237.171341,353.983307 121.045586,353.977753 4.920015,354.104431 
	C1.336594,354.108337 0.910862,353.175781 0.915770,349.922607 
	C1.025621,277.115173 1.000000,204.307571 1.000000,131.000000 
z"/>
<path fill="#232021" opacity="1.000000" stroke="none" 
	d="
M8.780909,80.999939 
	C8.780715,58.338680 8.870934,36.176720 8.698263,14.016814 
	C8.666678,9.963314 9.723267,8.583041 13.967198,8.587094 
	C123.940224,8.692119 233.913391,8.688901 343.886444,8.593012 
	C347.879303,8.589531 348.932922,9.841146 348.929657,13.732209 
	C348.837189,123.705223 348.830292,233.678360 348.946503,343.651337 
	C348.951141,348.048126 347.337952,348.811340 343.425446,348.808258 
	C233.785645,348.721893 124.145721,348.708618 14.506005,348.841522 
	C9.813884,348.847198 8.683733,347.450104 8.690050,342.935394 
	C8.811986,255.790375 8.780695,168.645126 8.780909,80.999939 
z"/>
<path fill="#7AA6E9" opacity="1.000000" stroke="none" 
	d="
M52.692188,91.999878 
	C52.692402,80.170441 52.848015,68.837715 52.607582,57.513390 
	C52.524799,53.614269 53.614880,52.454868 57.602829,52.474308 
	C90.424080,52.634315 123.246437,52.565403 156.068466,52.565540 
	C203.885330,52.565742 251.702423,52.627445 299.518707,52.462898 
	C303.935944,52.447701 305.055939,53.606319 305.048492,58.005161 
	C304.912079,138.477219 304.912811,218.949615 305.047089,299.421692 
	C305.054352,303.789642 304.010834,304.950043 299.548889,304.941742 
	C219.076889,304.792236 138.604477,304.794952 58.132435,304.936676 
	C53.724796,304.944458 52.583862,303.835236 52.592934,299.428253 
	C52.734879,230.452362 52.692303,161.476074 52.692188,91.999878 
z"/>
<path fill="#222020" opacity="1.000000" stroke="none" 
	d="
M195.971771,164.017242 
	C206.794250,180.644501 217.436462,196.960052 228.296265,213.609177 
	C229.886398,211.657700 229.228241,209.636658 229.229889,207.845383 
	C229.274384,159.848083 229.343109,111.850410 229.146423,63.853882 
	C229.126526,58.994957 230.362335,57.707607 235.182785,57.856171 
	C247.170761,58.225632 259.179321,58.084370 271.175995,57.905769 
	C274.287598,57.859447 275.067810,58.781445 275.064575,61.835060 
	C274.982605,138.997360 274.978027,216.159790 275.075226,293.322052 
	C275.079376,296.621002 273.871124,297.108643 271.019287,297.076996 
	C259.188080,296.945709 247.351562,296.874573 235.523712,297.113464 
	C232.045135,297.183746 230.197433,295.919708 228.375580,293.108826 
	C196.583145,244.057343 164.690826,195.070572 132.786560,146.091644 
	C131.842163,144.641800 131.265045,142.829895 129.000626,141.621857 
	C129.000626,143.767380 129.000626,145.521225 129.000626,147.275070 
	C129.000610,195.439072 128.924530,243.603378 129.123413,291.766541 
	C129.142380,296.358917 127.799263,297.225586 123.572754,297.122559 
	C111.747093,296.834412 99.907928,296.903778 88.078346,297.095215 
	C84.584198,297.151733 83.165329,296.551880 83.171974,292.544434 
	C83.299095,215.882233 83.295006,139.219711 83.179741,62.557461 
	C83.173981,58.721752 84.304375,57.813797 87.977081,57.891884 
	C99.138077,58.129189 110.310822,58.136097 121.471512,57.891651 
	C125.373062,57.806206 127.701347,58.942913 129.893082,62.339813 
	C151.742630,96.203621 173.795807,129.936020 195.971771,164.017242 
z"/>
</svg>